<svg viewBox="0 0 1867 2134" xmlns="http://www.w3.org/2000/svg" xml:space="preserve" style="fill-rule:evenodd;clip-rule:evenodd;stroke-linejoin:round;stroke-miterlimit:2"><path d="M1866.67 200v1400c-262.5 95.833-341.667 133.333-495.834 133.333-262.5 0-362.5-133.333-625-133.333-83.333 0-150 16.667-212.5 33.333v-266.666c62.5-16.667 129.167-33.334 212.5-33.334 262.5 0 362.5 133.334 625 133.334 83.334 0 145.834-12.5 229.167-37.5V562.5c-83.333 25-145.833 37.5-229.167 37.5-262.5 0-362.5-133.333-625-133.333-212.5 0-312.5 87.5-479.166 120.833v1279.17c0 75-58.334 133.333-133.334 133.333S.003 1941.67.003 1866.67v-1600c0-75 58.333-133.334 133.333-133.334S266.67 191.67 266.67 266.67v54.166c166.666-33.333 266.666-120.833 479.166-120.833 262.5 0 362.5 133.333 625 133.333 154.167 0 233.334-37.5 495.834-133.333Z" style="fill:#fff;fill-rule:nonzero"/></svg>