<svg viewBox="0 0 2067 2134" xmlns="http://www.w3.org/2000/svg" xml:space="preserve" style="fill-rule:evenodd;clip-rule:evenodd;stroke-linejoin:round;stroke-miterlimit:2"><path d="M691.25 1655.83c0 8.334-9.583 15-21.667 15-13.75 1.25-23.333-5.416-23.333-15 0-8.333 9.583-15 21.667-15 12.5-1.25 23.333 5.417 23.333 15Zm-129.583-18.75c-2.917 8.334 5.416 17.917 17.916 20.417 10.834 4.167 23.334 0 25.834-8.333 2.5-8.334-5.417-17.917-17.917-21.667-10.833-2.917-22.917 1.25-25.833 9.583Zm184.166-7.083c-12.083 2.917-20.416 10.833-19.166 20.417 1.25 8.333 12.083 13.75 24.583 10.833 12.083-2.917 20.417-10.833 19.167-19.167-1.25-7.916-12.5-13.333-24.584-12.083ZM1020 33.327c-577.917 0-1020 438.75-1020 1016.67 0 462.083 290.833 857.5 706.25 996.667 53.333 9.583 72.083-23.334 72.083-50.417 0-25.833-1.25-168.333-1.25-255.833 0 0-291.666 62.5-352.916-124.167 0 0-47.5-121.25-115.834-152.5 0 0-95.416-65.417 6.667-64.167 0 0 103.75 8.334 160.833 107.5 91.25 160.834 244.167 114.584 303.75 87.084 9.584-66.667 36.667-112.917 66.667-140.417-232.917-25.833-467.917-59.583-467.917-460.417 0-114.583 31.667-172.083 98.334-245.416-10.834-27.084-46.25-138.75 10.833-282.917 87.083-27.083 287.5 112.5 287.5 112.5 83.333-23.333 172.917-35.417 261.667-35.417 88.75 0 178.333 12.084 261.666 35.417 0 0 200.417-140 287.5-112.5 57.084 144.583 21.667 255.833 10.834 282.917 66.666 73.75 107.5 131.25 107.5 245.416 0 402.084-245.417 434.167-478.334 460.417 38.334 32.917 70.834 95.417 70.834 193.333 0 140.417-1.25 314.167-1.25 348.334 0 27.083 19.166 60 72.083 50.416 416.667-138.333 699.167-533.75 699.167-995.833 0-577.917-468.75-1016.67-1046.67-1016.67Zm-615 1437.08c-5.417 4.166-4.167 13.75 2.917 21.666 6.666 6.667 16.25 9.584 21.666 4.167 5.417-4.167 4.167-13.75-2.916-21.667-6.667-6.666-16.25-9.583-21.667-4.166Zm-45-33.75c-2.917 5.416 1.25 12.083 9.583 16.25 6.667 4.166 15 2.916 17.917-2.917 2.917-5.417-1.25-12.083-9.583-16.25-8.334-2.5-15-1.25-17.917 2.917Zm135 148.333c-6.667 5.417-4.167 17.917 5.417 25.833 9.583 9.584 21.666 10.834 27.083 4.167 5.417-5.417 2.917-17.917-5.417-25.833-9.166-9.584-21.666-10.834-27.083-4.167Zm-47.5-61.25c-6.667 4.167-6.667 15 0 24.583 6.667 9.584 17.917 13.75 23.333 9.584 6.667-5.417 6.667-16.25 0-25.834-5.833-9.583-16.666-13.75-23.333-8.333Z" style="fill:#fff;fill-rule:nonzero"/></svg>