<svg viewBox="0 0 1867 2134" xmlns="http://www.w3.org/2000/svg" xml:space="preserve" style="fill-rule:evenodd;clip-rule:evenodd;stroke-linejoin:round;stroke-miterlimit:2"><path d="M1733.33 133.333H132.91C59.576 133.333-.007 193.75-.007 267.917v1597.5C-.007 1939.583 59.576 2000 132.91 2000h1600.42c73.334 0 133.334-60.417 133.334-134.583v-1597.5c0-74.167-60-134.584-133.334-134.584Zm-1168.75 1600H287.497V842.5H564.58v890.833Zm-138.75-1012.5c-88.75 0-160.416-72.083-160.416-160.416C265.414 472.083 337.08 400 425.83 400c88.334 0 160.417 72.083 160.417 160.417 0 88.75-71.667 160.416-160.417 160.416Zm1175.42 1012.5h-276.667V1300c0-103.333-2.083-236.25-143.75-236.25-144.166 0-166.25 112.5-166.25 228.75v440.833H737.917V842.5h265.416v121.667h3.75c37.084-70 127.5-143.75 262.084-143.75 280 0 332.083 184.583 332.083 424.583v488.333Z" style="fill:#fff;fill-rule:nonzero"/></svg>