<svg viewBox="0 0 2134 2134" xmlns="http://www.w3.org/2000/svg" xml:space="preserve" style="fill-rule:evenodd;clip-rule:evenodd;stroke-linejoin:round;stroke-miterlimit:2"><path d="M1742.5 738.333c-22.5-7.5-45-14.583-67.5-21.25 3.75-15.416 7.083-30.833 10.417-46.25 51.25-248.333 17.5-447.916-96.25-513.75-109.584-62.916-288.334 2.5-469.167 160-17.917 15.417-35.417 31.667-52.083 47.917a1258.85 1258.85 0 0 0-34.584-32.083C843.75 164.583 653.75 93.75 540 160c-109.167 63.333-141.667 251.25-95.833 486.25 4.583 23.333 9.583 46.25 15.416 69.583-26.666 7.5-52.916 15.834-77.5 24.584C159.583 817.5 0 939.167 0 1065c0 130 170 260.417 401.25 339.583 18.75 6.25 37.5 12.5 56.667 17.917-6.25 25-11.667 49.583-16.667 75-43.75 231.25-9.583 414.583 99.583 477.5 112.5 65 301.667-1.667 485.834-162.917 14.583-12.916 29.166-26.25 43.75-40.416 18.333 17.916 37.5 35 56.666 51.666 178.334 153.334 354.584 215.417 463.334 152.5 112.5-65 149.166-262.083 101.666-502.083a1747.671 1747.671 0 0 0-12.5-56.25c13.334-3.75 26.25-7.917 39.167-12.083 240.417-79.584 414.583-208.334 414.583-340.417 0-126.25-164.166-248.75-390.833-326.667Zm-563.75-353.75c155-135 299.583-187.916 365.417-150 70.416 40.417 97.5 203.75 53.333 418.334-2.917 14.166-5.833 27.916-9.583 41.666-92.5-20.833-186.25-35.833-280.417-44.166-54.167-77.5-113.333-151.667-177.5-221.25 16.25-15.417 32.083-30 48.75-44.584ZM696.667 1281.25c21.25 36.25 42.916 72.5 65.833 107.917-65-7.084-129.583-17.5-193.333-31.25 18.333-60 41.25-122.084 67.916-185.417 19.167 36.667 38.75 72.917 59.584 108.75ZM570.417 780c60-13.333 123.75-24.167 190-32.5-22.084 34.583-43.75 70-64.167 105.833-20.417 35.417-40.417 71.667-59.167 108.334C610.833 899.583 588.75 838.75 570.417 780Zm114.166 287.083c27.5-57.5 57.5-113.75 89.167-169.166 31.667-55.417 65.833-109.167 101.667-162.084 62.5-4.583 126.25-7.083 191.25-7.083s129.166 2.5 191.25 7.083a2911.788 2911.788 0 0 1 101.25 161.25c32.083 55 62.083 111.25 90.416 168.334a2764.21 2764.21 0 0 1-90 170c-31.666 55.416-65.416 109.166-100.833 162.5-62.083 4.583-126.667 6.666-192.083 6.666-65.417 0-128.75-2.083-190-5.833a2533.57 2533.57 0 0 1-102.5-162.5c-32.084-55.417-61.667-111.667-89.584-169.167Zm752.5 213.334c21.25-36.667 41.25-73.75 60.834-111.25 26.666 60.416 50 121.666 70.416 184.583-64.583 14.583-130 25.833-195.833 33.333 22.5-35 43.75-70.833 64.583-106.666Zm60-318.75C1477.5 925 1457.5 888.333 1436.667 852.5a2708.988 2708.988 0 0 0-63.75-105c67.083 8.333 131.25 19.583 191.25 33.333C1545 842.5 1522.5 902.5 1497.083 961.667ZM1067.5 492.917c43.75 47.5 85 97.5 123.333 149.166-82.5-3.75-165.416-3.75-247.916 0 40.833-53.75 82.916-103.75 124.583-149.166ZM584.167 237.5c70-40.833 225.416 17.5 389.166 162.5 10.417 9.167 20.834 19.167 31.667 29.167-64.583 69.583-124.167 143.75-178.75 221.25-94.167 8.333-187.5 22.916-280 43.333-5.417-21.25-10-42.917-14.583-64.583-39.167-201.667-13.334-353.75 52.5-391.667ZM482.083 1335.83c-17.5-5-34.583-10.416-51.666-16.25-88.75-27.916-189.584-72.083-262.5-130-42.084-29.166-70.417-74.166-78.334-124.583 0-76.25 131.667-173.75 321.667-240 23.75-8.333 47.917-15.833 72.083-22.917 28.334 90.417 62.5 179.167 102.084 265-40 87.084-74.584 177.084-103.334 268.75Zm485.834 408.334c-68.75 62.916-148.334 112.916-235 147.083-46.25 22.083-99.584 24.167-147.084 5.417-66.25-38.334-93.75-185.417-56.25-383.334 4.584-23.333 9.584-46.666 15.417-69.583 93.333 20 187.5 33.75 282.917 40.833 55 77.917 115.416 152.5 180 222.5-13.334 12.917-26.667 25.417-40 37.084ZM1070 1642.914c-42.5-45.834-85-96.667-126.25-151.25 40 1.666 81.25 2.5 122.917 2.5 42.916 0 85-.834 126.666-2.917C1155 1544.164 1113.75 1594.58 1070 1642.914Zm544.583 125c-3.75 50.833-28.75 98.333-68.75 130.416-66.25 38.334-207.5-11.666-360-142.5-17.5-15-35-31.25-52.916-47.916 63.75-70.417 122.5-145 175.833-223.334a2053.9 2053.9 0 0 0 284.167-43.75c4.166 17.084 7.916 34.167 11.25 50.834 20.416 90 23.75 183.75 10.416 276.25Zm75.834-447.917c-11.667 3.75-23.334 7.5-35.417 10.833-29.167-90.833-65-179.583-106.25-265.833 40-85 73.75-172.5 102.083-262.083 21.667 6.25 42.5 12.916 62.5 19.583 194.167 66.667 330.417 165.833 330.417 241.667 0 81.666-145.417 187.083-353.333 255.833Zm-623.75-62.5c105.416 0 190.833-85.417 190.833-190.833 0-105.417-85.417-190.834-190.833-190.834-105.417 0-190.834 85.417-190.834 190.834 0 105.416 85.417 190.833 190.834 190.833Z" style="fill:#fff;fill-rule:nonzero"/></svg>