<svg viewBox="0 0 2667 2134" xmlns="http://www.w3.org/2000/svg" xml:space="preserve" style="fill-rule:evenodd;clip-rule:evenodd;stroke-linejoin:round;stroke-miterlimit:2"><path d="m464.167 1067.92 24.166 270.833-24.166 284.583c-1.25 10.417-9.167 18.334-18.334 18.334-9.166 0-17.5-7.917-17.5-18.334L405 1338.753l23.333-270.833c0-9.167 7.917-17.5 17.5-17.5 9.167 0 17.084 8.333 18.334 17.5Zm89.166-190c-11.666 0-19.583 9.166-20.833 20.833l-20.833 440 20.833 284.583c1.25 11.667 9.167 20.834 20.833 20.834 10.417 0 19.584-9.167 19.584-20.834l24.166-284.583-24.166-440c0-11.667-9.167-20.833-19.584-20.833Zm106.25-100.417c-12.916 0-22.083 9.167-23.333 22.083l-18.333 541.667 18.333 282.5c1.25 12.917 10.417 22.083 23.333 22.083 11.667 0 22.084-9.166 22.084-22.083l22.083-282.5-22.083-541.667c0-12.916-10.417-22.083-22.084-22.083ZM30 1180.003c-5.833 0-9.167 4.583-10.417 10.417L0 1338.753l19.583 145.833c1.25 5.834 4.584 10.417 10.417 10.417s9.167-4.583 10.417-10.417l23.333-145.833-23.333-148.333c-1.25-5.834-4.584-10.417-10.417-10.417Zm98.333-91.25c-5.833 0-10.416 4.583-10.416 10.417L91.25 1338.753l26.667 233.75c0 7.083 4.583 11.667 10.416 11.667 5.834 0 10.417-4.584 11.667-10.417l30-235-30-239.583c-1.25-5.834-5.833-10.417-11.667-10.417Zm105.417-47.5c-7.083 0-12.917 5.833-13.75 13.75l-24.167 283.75L220 1612.92c1.25 7.083 7.083 12.916 13.75 12.916 7.083 0 12.917-5.833 12.917-12.916l28.75-274.167-28.75-283.75c0-7.917-5.834-13.75-12.917-13.75Zm105.417-9.167c-7.917 0-15 5.834-15 15L300 1338.753l24.167 282.5c0 9.167 7.083 15 15 15 7.916 0 15-5.833 16.25-15l26.666-282.5-26.666-291.667c-1.25-9.166-8.334-15-16.25-15Zm1005.83-462.083c-4.583-3.333-11.667-5.833-17.5-5.833-9.167 0-17.5 3.333-23.333 7.916-7.917 7.084-12.917 17.5-13.75 27.917v3.333l-13.75 736.25 7.083 135.417 7.083 132.083c1.25 19.584 17.5 35.834 37.084 35.834 19.583 0 35.833-16.25 35.833-35.834l16.25-267.5-16.25-739.583c-1.667-12.5-8.333-24.167-18.75-30Zm-111.25 63.75c-5.833-3.333-11.667-5.833-18.333-5.833-6.667 0-12.917 2.5-18.334 5.833-9.166 5.833-15 16.25-15 27.917l-1.25 7.083-11.666 670s0 1.25 12.916 273.333v1.25c0 7.084 2.5 13.75 7.084 19.584 7.083 7.916 16.25 12.916 26.666 12.916 9.167 0 17.5-4.583 23.334-10.416 7.083-5.834 10.416-13.75 10.416-23.334l1.25-27.916 12.917-244.167-13.75-678.333c-1.25-11.667-7.083-22.084-16.25-27.917Zm-464.167 93.75c-12.916 0-24.166 11.667-24.166 25.417l-18.334 585.833 18.334 280c1.25 13.75 11.666 24.167 24.166 24.167 13.75 0 24.167-10.417 25.417-24.167l20.833-280-20.833-585.833c-.833-13.75-11.25-25.417-25.417-25.417ZM2339.16 989.17c-45 0-87.917 9.166-127.5 25.416-26.667-295-274.167-526.666-576.25-526.666-74.167 0-145.834 13.75-209.584 39.166-25.416 9.167-32.5 18.334-32.5 38.334v1040.42c0 20.834 16.25 35.834 35.834 38.334h909.583c180.417 0 327.5-145.834 327.5-326.25.417-181.667-146.667-328.75-327.083-328.75ZM1102.91 737.92c-17.5 0-31.25 13.75-32.5 32.5l-13.75 569.583 13.75 273.333c1.25 17.5 15 31.25 32.5 31.25s31.25-13.75 31.25-31.25l16.25-273.333-16.25-569.583c-1.25-18.75-13.75-32.5-31.25-32.5Zm-223.334-32.5c-13.75 0-26.666 12.916-26.666 27.916l-16.25 605.417 16.25 278.75c1.25 15 12.916 26.667 26.666 26.667 15 0 26.667-11.667 27.917-26.667l18.333-278.75-18.333-605.417c-1.25-15-12.917-27.916-27.917-27.916Zm111.25 14.166c-16.25 0-28.75 12.917-28.75 28.75l-16.25 590.417 16.25 276.667c1.25 16.25 12.917 28.75 28.75 28.75 15.834 0 28.75-12.917 28.75-28.75l17.5-276.667-17.5-590.417c0-16.25-12.5-28.75-28.75-28.75Z" style="fill:#fff;fill-rule:nonzero"/></svg>