<svg viewBox="0 0 2067 2134" xmlns="http://www.w3.org/2000/svg" xml:space="preserve" style="fill-rule:evenodd;clip-rule:evenodd;stroke-linejoin:round;stroke-miterlimit:2"><path d="M1033.33 33.333C462.914 33.333 0 496.25 0 1066.663c0 570.416 462.917 1033.33 1033.33 1033.33 570.417 0 1033.33-462.917 1033.33-1033.33 0-570.417-462.917-1033.33-1033.33-1033.33Zm419.584 1520.42c-17.5 0-28.334-5.417-44.584-15-260-156.667-562.5-163.333-861.25-102.083-16.25 4.166-37.5 10.833-49.583 10.833-40.417 0-65.833-32.083-65.833-65.833 0-42.917 25.416-63.334 56.666-70 341.25-75.417 690-68.75 987.5 109.166 25.417 16.25 40.417 30.834 40.417 68.75 0 37.917-29.583 64.167-63.333 64.167Zm112.083-273.333c-21.667 0-36.25-9.584-51.25-17.5-260.417-154.167-648.75-216.25-994.167-122.5-20 5.416-30.833 10.833-49.583 10.833-44.583 0-80.833-36.25-80.833-80.833 0-44.584 21.666-74.167 64.583-86.25 115.833-32.5 234.167-56.667 407.5-56.667 270.417 0 531.667 67.083 737.5 189.583 33.75 20 47.083 45.834 47.083 82.084-.416 45-35.416 81.25-80.833 81.25Zm129.167-317.5c-21.667 0-35-5.417-53.75-16.25-296.667-177.084-827.084-219.584-1170.42-123.75-15 4.166-33.75 10.833-53.75 10.833-55 0-97.083-42.917-97.083-98.333 0-56.667 35-88.75 72.5-99.584 146.666-42.916 310.833-63.333 489.583-63.333 304.167 0 622.917 63.333 855.833 199.167 32.5 18.75 53.75 44.583 53.75 94.166 0 56.667-45.833 97.084-96.666 97.084Z" style="fill:#fff;fill-rule:nonzero"/></svg>