<svg viewBox="0 0 1867 2134" xmlns="http://www.w3.org/2000/svg" xml:space="preserve" style="fill-rule:evenodd;clip-rule:evenodd;stroke-linejoin:round;stroke-miterlimit:2"><path d="M1866.67 874.625a875.371 875.371 0 0 1-511.542-163.542v744.667c-.136 371.457-305.834 677.043-677.292 677.043-371.551 0-677.291-305.74-677.291-677.292 0-371.551 305.74-677.291 677.291-677.291 31.111 0 62.184 2.143 93 6.415v374.542a310.92 310.92 0 0 0-93.291-14.327c-170.564 0-310.917 140.353-310.917 310.917 0 170.564 140.353 310.917 310.917 310.917 170.564 0 310.916-140.353 310.916-310.917V0h366.667a504.93 504.93 0 0 0 7.75 92.375c25.739 137.494 107.043 258.477 224.625 334.25a506.017 506.017 0 0 0 279.167 83.917v364.083Z" style="fill:#fff;fill-rule:nonzero"/></svg>