<svg viewBox="0 0 2400 2134" xmlns="http://www.w3.org/2000/svg" xml:space="preserve" style="fill-rule:evenodd;clip-rule:evenodd;stroke-linejoin:round;stroke-miterlimit:2"><path d="M2290.23 517.013c-26.171-98.542-103.279-176.151-201.183-202.488-177.459-47.858-889.046-47.858-889.046-47.858s-711.583 0-889.046 47.858c-97.904 26.342-175.012 103.946-201.183 202.488-47.55 178.612-47.55 551.27-47.55 551.27s0 372.659 47.55 551.271c26.171 98.542 103.279 172.917 201.183 199.254 177.463 47.859 889.046 47.859 889.046 47.859s711.583 0 889.046-47.859c97.904-26.337 175.012-100.712 201.183-199.254 47.55-178.612 47.55-551.271 47.55-551.271s0-372.658-47.55-551.271ZM967.27 1406.63V729.939l594.746 338.354L967.27 1406.63Z" style="fill:#fff;fill-rule:nonzero"/></svg>