<svg viewBox="0 0 1867 2134" xmlns="http://www.w3.org/2000/svg" xml:space="preserve" style="fill-rule:evenodd;clip-rule:evenodd;stroke-linejoin:round;stroke-miterlimit:2"><path d="M933.75 587.5c-265 0-478.75 213.75-478.75 478.75S668.75 1545 933.75 1545s478.75-213.75 478.75-478.75S1198.75 587.5 933.75 587.5Zm0 790c-171.25 0-311.25-139.583-311.25-311.25S762.083 755 933.75 755 1245 894.583 1245 1066.25s-140 311.25-311.25 311.25Zm610-809.583c0 62.083-50 111.666-111.667 111.666-62.083 0-111.666-50-111.666-111.666 0-61.667 50-111.667 111.666-111.667 61.667 0 111.667 50 111.667 111.667Zm317.083 113.333C1853.75 531.667 1819.583 399.167 1710 290c-109.167-109.167-241.667-143.333-391.25-150.833-154.167-8.75-616.25-8.75-770.417 0-149.166 7.083-281.666 41.25-391.25 150.416C47.5 398.75 13.75 531.25 6.25 680.833-2.5 835-2.5 1297.083 6.25 1451.25c7.083 149.583 41.25 282.083 150.833 391.25 109.584 109.167 241.667 143.333 391.25 150.833 154.167 8.75 616.25 8.75 770.417 0 149.583-7.083 282.083-41.25 391.25-150.833 109.167-109.167 143.333-241.667 150.833-391.25 8.75-154.167 8.75-615.833 0-770Zm-199.166 935.417c-32.5 81.666-95.417 144.583-177.5 177.5-122.917 48.75-414.584 37.5-550.417 37.5-135.833 0-427.917 10.833-550.417-37.5-81.666-32.5-144.583-95.417-177.5-177.5-48.75-122.917-37.5-414.584-37.5-550.417 0-135.833-10.833-427.917 37.5-550.417 32.5-81.666 95.417-144.583 177.5-177.5 122.917-48.75 414.584-37.5 550.417-37.5 135.833 0 427.917-10.833 550.417 37.5 81.666 32.5 144.583 95.417 177.5 177.5 48.75 122.917 37.5 414.584 37.5 550.417 0 135.833 11.25 427.917-37.5 550.417Z" style="fill:#fff;fill-rule:nonzero"/></svg>