<svg viewBox="0 0 1600 2134" xmlns="http://www.w3.org/2000/svg" xml:space="preserve" style="fill-rule:evenodd;clip-rule:evenodd;stroke-linejoin:round;stroke-miterlimit:2"><path d="M1591.25 1617.5c-26.667 114.167-113.333 178.333-229.583 200-102.084 18.75-187.084 23.333-268.75-42.5-99.584-83.75-100.834-222.5-11.25-310 70.833-67.5 170.416-81.25 320-107.5 25-4.583 46.666-10.417 65-30.833 26.666-30 18.333-17.084 18.333-680 0-46.667-22.917-59.584-70.833-51.25-34.167 5.833-773.75 144.166-773.75 144.166-42.5 9.167-55.834 21.667-55.834 69.584 0 977.916 4.584 932.916-10.416 997.916-17.5 75.834-64.167 132.917-125.834 164.584-70 38.75-196.666 55.833-264.166 43.333-180-33.75-243.334-241.667-121.25-360.833 70.833-67.5 170.416-81.25 320-107.5 25-4.584 46.666-10.417 65-30.834 42.083-47.916 7.5-1069.17 21.666-1125.83 3.334-21.667 12.5-40 29.584-53.75 17.5-14.583 49.166-22.917 55.833-22.917 850-159.166 953.75-179.583 968.333-179.583 47.917-3.333 75.417 25 75.417 73.333.833 1435.42 4.583 1358.33-7.5 1410.42Z" style="fill:#fff;fill-rule:nonzero"/></svg>